<svg xmlns="http://www.w3.org/2000/svg" xmlns:xlink="http://www.w3.org/1999/xlink" width="500" zoomAndPan="magnify" viewBox="0 0 375 374.999991" height="500" preserveAspectRatio="xMidYMid meet" version="1.0"><defs><clipPath id="44d6bf817b"><path d="M 22.101562 22.101562 L 350.601562 22.101562 L 350.601562 350.601562 L 22.101562 350.601562 Z M 22.101562 22.101562 " clip-rule="nonzero"/></clipPath><clipPath id="5a27741b52"><path d="M 101 206 L 148 206 L 148 253 L 101 253 Z M 101 206 " clip-rule="nonzero"/></clipPath><clipPath id="35ac26cfcc"><path d="M 162.195312 354.480469 L 45.285156 125.332031 L 214.304688 39.097656 L 331.21875 268.246094 Z M 162.195312 354.480469 " clip-rule="nonzero"/></clipPath><clipPath id="53a2b770ae"><path d="M 214.101562 39.066406 L 331.015625 268.214844 L 161.992188 354.453125 L 45.078125 125.304688 Z M 214.101562 39.066406 " clip-rule="nonzero"/></clipPath><clipPath id="48c1954ae1"><path d="M 134.15625 197.691406 L 155.839844 240.1875 L 114.148438 261.457031 L 92.464844 218.960938 Z M 134.15625 197.691406 " clip-rule="nonzero"/></clipPath><clipPath id="820cc0bb75"><path d="M 134.15625 197.691406 L 155.839844 240.1875 L 114.515625 261.273438 L 92.832031 218.773438 Z M 134.15625 197.691406 " clip-rule="nonzero"/></clipPath><clipPath id="36dd84f9b0"><path d="M 157 63 L 294 63 L 294 295 L 157 295 Z M 157 63 " clip-rule="nonzero"/></clipPath><clipPath id="c9509035f6"><path d="M 162.195312 354.480469 L 45.285156 125.332031 L 214.304688 39.097656 L 331.21875 268.246094 Z M 162.195312 354.480469 " clip-rule="nonzero"/></clipPath><clipPath id="c9cb4aa338"><path d="M 214.101562 39.066406 L 331.015625 268.214844 L 161.992188 354.453125 L 45.078125 125.304688 Z M 214.101562 39.066406 " clip-rule="nonzero"/></clipPath><clipPath id="72312722dc"><path d="M 214.078125 39.082031 L 331.164062 268.570312 L 269.902344 299.824219 L 152.816406 70.335938 Z M 214.078125 39.082031 " clip-rule="nonzero"/></clipPath><clipPath id="ef1623842c"><path d="M 214.078125 39.082031 L 330.972656 268.195312 L 269.710938 299.449219 L 152.816406 70.335938 Z M 214.078125 39.082031 " clip-rule="nonzero"/></clipPath><clipPath id="7e5fe62c5b"><path d="M 143 107 L 246 107 L 246 281 L 143 281 Z M 143 107 " clip-rule="nonzero"/></clipPath><clipPath id="e78a9db172"><path d="M 162.195312 354.480469 L 45.285156 125.332031 L 214.304688 39.097656 L 331.21875 268.246094 Z M 162.195312 354.480469 " clip-rule="nonzero"/></clipPath><clipPath id="2b1e696544"><path d="M 214.101562 39.066406 L 331.015625 268.214844 L 161.992188 354.453125 L 45.078125 125.304688 Z M 214.101562 39.066406 " clip-rule="nonzero"/></clipPath><clipPath id="83682ac85d"><path d="M 129 151 L 200 151 L 200 267 L 129 267 Z M 129 151 " clip-rule="nonzero"/></clipPath><clipPath id="b91e8b5397"><path d="M 162.195312 354.480469 L 45.285156 125.332031 L 214.304688 39.097656 L 331.21875 268.246094 Z M 162.195312 354.480469 " clip-rule="nonzero"/></clipPath><clipPath id="71ee20fc3b"><path d="M 214.101562 39.066406 L 331.015625 268.214844 L 161.992188 354.453125 L 45.078125 125.304688 Z M 214.101562 39.066406 " clip-rule="nonzero"/></clipPath></defs><g clip-path="url(#44d6bf817b)"><path fill="#2563eb" d="M 350.601562 186.351562 C 350.601562 189.039062 350.535156 191.726562 350.402344 194.410156 C 350.269531 197.09375 350.074219 199.773438 349.808594 202.449219 C 349.546875 205.125 349.21875 207.792969 348.824219 210.453125 C 348.429688 213.109375 347.96875 215.757812 347.445312 218.394531 C 346.921875 221.03125 346.332031 223.652344 345.679688 226.261719 C 345.023438 228.867188 344.308594 231.457031 343.527344 234.03125 C 342.746094 236.601562 341.90625 239.152344 341 241.683594 C 340.09375 244.214844 339.125 246.722656 338.097656 249.207031 C 337.070312 251.691406 335.980469 254.148438 334.832031 256.578125 C 333.683594 259.007812 332.472656 261.40625 331.207031 263.777344 C 329.9375 266.148438 328.613281 268.488281 327.234375 270.792969 C 325.851562 273.097656 324.414062 275.367188 322.917969 277.601562 C 321.425781 279.839844 319.878906 282.035156 318.277344 284.195312 C 316.675781 286.355469 315.023438 288.472656 313.316406 290.550781 C 311.613281 292.628906 309.855469 294.664062 308.050781 296.65625 C 306.246094 298.644531 304.394531 300.59375 302.492188 302.492188 C 300.59375 304.394531 298.644531 306.246094 296.65625 308.050781 C 294.664062 309.855469 292.628906 311.613281 290.550781 313.316406 C 288.472656 315.023438 286.355469 316.675781 284.195312 318.277344 C 282.035156 319.878906 279.839844 321.425781 277.601562 322.917969 C 275.367188 324.414062 273.097656 325.851562 270.792969 327.234375 C 268.488281 328.613281 266.148438 329.9375 263.777344 331.207031 C 261.40625 332.472656 259.007812 333.683594 256.578125 334.832031 C 254.148438 335.980469 251.691406 337.070312 249.207031 338.097656 C 246.722656 339.125 244.214844 340.09375 241.683594 341 C 239.152344 341.90625 236.601562 342.75 234.03125 343.527344 C 231.457031 344.308594 228.867188 345.027344 226.261719 345.679688 C 223.652344 346.332031 221.03125 346.921875 218.394531 347.445312 C 215.757812 347.96875 213.109375 348.429688 210.453125 348.824219 C 207.792969 349.21875 205.125 349.546875 202.449219 349.808594 C 199.773438 350.074219 197.09375 350.269531 194.410156 350.402344 C 191.726562 350.535156 189.039062 350.601562 186.351562 350.601562 C 183.664062 350.601562 180.976562 350.535156 178.292969 350.402344 C 175.605469 350.269531 172.925781 350.074219 170.25 349.808594 C 167.578125 349.546875 164.910156 349.21875 162.25 348.824219 C 159.589844 348.429688 156.945312 347.96875 154.308594 347.445312 C 151.671875 346.921875 149.050781 346.332031 146.441406 345.679688 C 143.832031 345.027344 141.242188 344.308594 138.671875 343.527344 C 136.097656 342.75 133.546875 341.90625 131.015625 341 C 128.484375 340.09375 125.980469 339.125 123.496094 338.097656 C 121.011719 337.070312 118.554688 335.980469 116.125 334.832031 C 113.695312 333.683594 111.292969 332.472656 108.925781 331.207031 C 106.554688 329.9375 104.214844 328.613281 101.910156 327.234375 C 99.605469 325.851562 97.332031 324.414062 95.097656 322.917969 C 92.863281 321.425781 90.667969 319.878906 88.507812 318.277344 C 86.347656 316.675781 84.230469 315.023438 82.152344 313.316406 C 80.074219 311.613281 78.039062 309.855469 76.046875 308.050781 C 74.054688 306.246094 72.109375 304.394531 70.207031 302.492188 C 68.308594 300.59375 66.453125 298.644531 64.648438 296.65625 C 62.84375 294.664062 61.089844 292.628906 59.382812 290.550781 C 57.679688 288.472656 56.027344 286.355469 54.425781 284.195312 C 52.824219 282.035156 51.277344 279.839844 49.78125 277.601562 C 48.289062 275.367188 46.851562 273.097656 45.46875 270.792969 C 44.085938 268.488281 42.761719 266.148438 41.496094 263.777344 C 40.226562 261.40625 39.019531 259.007812 37.871094 256.578125 C 36.722656 254.148438 35.632812 251.691406 34.605469 249.207031 C 33.574219 246.722656 32.609375 244.214844 31.703125 241.683594 C 30.796875 239.152344 29.953125 236.601562 29.171875 234.03125 C 28.394531 231.457031 27.675781 228.867188 27.023438 226.261719 C 26.371094 223.652344 25.78125 221.03125 25.257812 218.394531 C 24.734375 215.757812 24.273438 213.109375 23.878906 210.453125 C 23.484375 207.792969 23.15625 205.125 22.890625 202.449219 C 22.628906 199.773438 22.429688 197.09375 22.300781 194.410156 C 22.167969 191.726562 22.101562 189.039062 22.101562 186.351562 C 22.101562 183.664062 22.167969 180.976562 22.300781 178.292969 C 22.429688 175.605469 22.628906 172.925781 22.890625 170.25 C 23.15625 167.578125 23.484375 164.910156 23.878906 162.25 C 24.273438 159.589844 24.734375 156.945312 25.257812 154.308594 C 25.78125 151.671875 26.371094 149.050781 27.023438 146.441406 C 27.675781 143.832031 28.394531 141.242188 29.171875 138.671875 C 29.953125 136.097656 30.796875 133.546875 31.703125 131.015625 C 32.609375 128.484375 33.574219 125.980469 34.605469 123.496094 C 35.632812 121.011719 36.722656 118.554688 37.871094 116.125 C 39.019531 113.695312 40.226562 111.292969 41.496094 108.925781 C 42.761719 106.554688 44.085938 104.214844 45.46875 101.910156 C 46.851562 99.605469 48.289062 97.332031 49.78125 95.097656 C 51.277344 92.863281 52.824219 90.667969 54.425781 88.507812 C 56.027344 86.347656 57.679688 84.230469 59.382812 82.152344 C 61.089844 80.074219 62.84375 78.039062 64.648438 76.046875 C 66.453125 74.054688 68.308594 72.109375 70.207031 70.207031 C 72.109375 68.308594 74.054688 66.453125 76.046875 64.648438 C 78.039062 62.84375 80.074219 61.089844 82.152344 59.382812 C 84.230469 57.679688 86.347656 56.027344 88.507812 54.425781 C 90.667969 52.824219 92.863281 51.277344 95.097656 49.78125 C 97.332031 48.289062 99.605469 46.851562 101.910156 45.46875 C 104.214844 44.085938 106.554688 42.761719 108.925781 41.496094 C 111.292969 40.226562 113.695312 39.019531 116.125 37.871094 C 118.554688 36.722656 121.011719 35.632812 123.496094 34.605469 C 125.980469 33.574219 128.484375 32.609375 131.015625 31.703125 C 133.546875 30.796875 136.097656 29.953125 138.671875 29.171875 C 141.242188 28.394531 143.832031 27.675781 146.441406 27.023438 C 149.050781 26.371094 151.671875 25.78125 154.308594 25.257812 C 156.945312 24.734375 159.589844 24.273438 162.25 23.878906 C 164.910156 23.484375 167.578125 23.15625 170.25 22.890625 C 172.925781 22.628906 175.605469 22.429688 178.292969 22.300781 C 180.976562 22.167969 183.664062 22.101562 186.351562 22.101562 C 189.039062 22.101562 191.726562 22.167969 194.410156 22.300781 C 197.09375 22.429688 199.773438 22.628906 202.449219 22.890625 C 205.125 23.15625 207.792969 23.484375 210.453125 23.878906 C 213.109375 24.273438 215.757812 24.734375 218.394531 25.257812 C 221.03125 25.78125 223.652344 26.371094 226.261719 27.023438 C 228.867188 27.675781 231.457031 28.394531 234.03125 29.171875 C 236.601562 29.953125 239.152344 30.796875 241.683594 31.703125 C 244.214844 32.609375 246.722656 33.574219 249.207031 34.605469 C 251.691406 35.632812 254.148438 36.722656 256.578125 37.871094 C 259.007812 39.019531 261.40625 40.226562 263.777344 41.496094 C 266.148438 42.761719 268.488281 44.085938 270.792969 45.46875 C 273.097656 46.851562 275.367188 48.289062 277.601562 49.78125 C 279.839844 51.277344 282.035156 52.824219 284.195312 54.425781 C 286.355469 56.027344 288.472656 57.679688 290.550781 59.382812 C 292.628906 61.089844 294.664062 62.84375 296.65625 64.648438 C 298.644531 66.453125 300.59375 68.308594 302.492188 70.207031 C 304.394531 72.109375 306.246094 74.054688 308.050781 76.046875 C 309.855469 78.039062 311.613281 80.074219 313.316406 82.152344 C 315.023438 84.230469 316.675781 86.347656 318.277344 88.507812 C 319.878906 90.667969 321.425781 92.863281 322.917969 95.097656 C 324.414062 97.332031 325.851562 99.605469 327.234375 101.910156 C 328.613281 104.214844 329.9375 106.554688 331.207031 108.925781 C 332.472656 111.292969 333.683594 113.695312 334.832031 116.125 C 335.980469 118.554688 337.070312 121.011719 338.097656 123.496094 C 339.125 125.980469 340.09375 128.484375 341 131.015625 C 341.90625 133.546875 342.75 136.097656 343.527344 138.671875 C 344.308594 141.242188 345.027344 143.832031 345.679688 146.441406 C 346.332031 149.050781 346.921875 151.671875 347.445312 154.308594 C 347.96875 156.945312 348.429688 159.589844 348.824219 162.25 C 349.21875 164.910156 349.546875 167.578125 349.808594 170.25 C 350.074219 172.925781 350.269531 175.605469 350.402344 178.292969 C 350.535156 180.976562 350.601562 183.664062 350.601562 186.351562 Z M 350.601562 186.351562 " fill-opacity="1" fill-rule="nonzero"/></g><g clip-path="url(#5a27741b52)"><g clip-path="url(#35ac26cfcc)"><g clip-path="url(#53a2b770ae)"><g clip-path="url(#48c1954ae1)"><g clip-path="url(#820cc0bb75)"><path fill="#ffffff" d="M 117.125 251.457031 C 104.957031 247.519531 98.296875 234.464844 102.25 222.300781 C 106.203125 210.136719 119.265625 203.46875 131.433594 207.410156 C 143.605469 211.347656 150.265625 224.402344 146.308594 236.566406 C 142.359375 248.730469 129.292969 255.398438 117.125 251.457031 " fill-opacity="1" fill-rule="nonzero"/></g></g></g></g></g><g clip-path="url(#36dd84f9b0)"><g clip-path="url(#c9509035f6)"><g clip-path="url(#c9cb4aa338)"><g clip-path="url(#72312722dc)"><g clip-path="url(#ef1623842c)"><path fill="#ffffff" d="M 271.671875 294.363281 C 278.476562 296.566406 285.78125 292.582031 287.523438 285.640625 C 310.488281 194.050781 262.234375 99.261719 174.730469 63.902344 C 168.085938 61.21875 160.554688 64.789062 158.339844 71.605469 C 156.324219 77.816406 159.488281 84.472656 165.539062 86.925781 C 241.480469 117.695312 283.363281 199.972656 263.503906 279.511719 C 261.917969 285.859375 265.449219 292.351562 271.671875 294.363281 " fill-opacity="1" fill-rule="nonzero"/></g></g></g></g></g><g clip-path="url(#7e5fe62c5b)"><g clip-path="url(#e78a9db172)"><g clip-path="url(#2b1e696544)"><path fill="#ffffff" d="M 227.871094 280.183594 C 234.046875 282.183594 240.707031 278.539062 242.191406 272.21875 C 258.066406 204.753906 222.800781 135.429688 158.992188 108.496094 C 153 105.964844 146.121094 109.214844 144.109375 115.40625 C 142.300781 120.96875 145.117188 126.902344 150.496094 129.1875 C 204.066406 151.945312 233.683594 210.160156 220.464844 266.878906 C 219.136719 272.589844 222.296875 278.378906 227.871094 280.183594 " fill-opacity="1" fill-rule="nonzero"/></g></g></g><g clip-path="url(#83682ac85d)"><g clip-path="url(#b91e8b5397)"><g clip-path="url(#71ee20fc3b)"><path fill="#ffffff" d="M 185.339844 266.414062 L 185.34375 266.414062 C 190.910156 268.214844 196.785156 264.753906 197.957031 259.023438 C 206.945312 215.171875 184.367188 170.71875 143.722656 152.074219 C 138.390625 149.628906 132.109375 152.351562 130.292969 157.929688 C 128.75 162.675781 131.070312 167.757812 135.609375 169.847656 C 167.96875 184.730469 185.945312 220.132812 178.824219 255.070312 C 177.820312 259.980469 180.574219 264.871094 185.339844 266.414062 " fill-opacity="1" fill-rule="nonzero"/></g></g></g></svg>