<?xml version="1.0" standalone="no"?>
<!DOCTYPE svg PUBLIC "-//W3C//DTD SVG 20010904//EN"
 "http://www.w3.org/TR/2001/REC-SVG-20010904/DTD/svg10.dtd">
<svg version="1.0" xmlns="http://www.w3.org/2000/svg"
 width="500.000000pt" height="500.000000pt" viewBox="0 0 500.000000 500.000000"
 preserveAspectRatio="xMidYMid meet">
<metadata>
Created by potrace 1.14, written by Peter Selinger 2001-2017
</metadata>
<g transform="translate(0.000000,500.000000) scale(0.100000,-0.100000)"
fill="#000000" stroke="none">
<path d="M2360 4108 c-178 -11 -365 -61 -554 -148 -306 -141 -593 -422 -750
-737 -294 -586 -203 -1294 227 -1784 191 -217 419 -372 688 -467 175 -62 314
-83 534 -83 270 0 473 49 720 171 346 172 634 487 775 846 41 105 84 263 96
349 3 28 8 59 10 70 6 29 5 293 -1 345 -65 552 -393 1028 -875 1270 -278 140
-536 190 -870 168z m385 -113 c684 -121 1196 -672 1261 -1355 54 -574 -220
-1124 -713 -1429 -201 -124 -441 -202 -678 -219 -795 -57 -1493 498 -1611
1283 -13 89 -21 375 -10 393 2 4 7 32 10 62 13 111 68 292 126 415 203 430
597 740 1061 835 168 35 407 41 554 15z"/>
<path d="M1590 3070 l0 -60 184 0 c138 0 185 -3 188 -12 2 -7 4 -250 3 -540
l-1 -528 71 0 71 0 -1 531 c0 292 3 535 6 540 3 6 77 8 173 7 l168 -3 0 -538
0 -538 252 2 c206 1 264 4 323 20 211 53 338 186 383 402 33 156 12 385 -47
501 -50 99 -148 189 -253 230 -108 42 -155 45 -852 46 l-668 0 0 -60z m1359
-72 c93 -17 158 -46 206 -95 85 -85 117 -189 118 -378 0 -230 -65 -366 -204
-429 -78 -36 -145 -45 -319 -43 l-155 2 0 470 c-1 259 0 474 3 478 5 11 285 7
351 -5z"/>
</g>
</svg>
